<?xml version="1.0" encoding="utf-8"?>
<!-- Generator: Adobe Illustrator 27.3.1, SVG Export Plug-In . SVG Version: 6.00 Build 0)  -->
<svg version="1.1" id="Ebene_1" xmlns="http://www.w3.org/2000/svg" xmlns:xlink="http://www.w3.org/1999/xlink" x="0px" y="0px"
	 viewBox="0 0 498.4595642 237.4017792" style="enable-background:new 0 0 498.4595642 237.4017792;" xml:space="preserve">
<path d="M119.7228165,58.22015H58.22015v159.8870087H19.4067001V58.2201462l38.0996742-38.813446h100.3161163L119.7228165,58.22015z
	 M314.4526062,218.107132l97.4640503-99.3019409l-97.4640503-99.2890549H260.01297l97.4640503,99.2890549L260.01297,218.107132
	H314.4526062z M256.0895691,30.0489044L199.769104,176.563797l30.6801453,31.2585602l56.0211792-146.8238525L256.0895691,30.0489044
	z M171.8423462,19.5161686l-97.4640427,99.2890625l97.2939835,99.1286697
	c0.1087799,0.1108246,54.6097107,0.1732635,54.6097107,0.1732635l-97.4640503-99.3019333l97.4640503-99.2890625H171.8423462z
	 M366.6755066,179.2916412l-38.0950012,38.8134613h112.5605469l38.0950012-38.8134613H366.6755066z"/>
</svg>
